<svg xmlns="http://www.w3.org/2000/svg" viewBox="0 0 301 301"><circle cx="150.5" cy="150.5" r="150" style="fill:#fff;stroke:#fff;stroke-miterlimit:10"/><polyline points="49.55 201.08 200.19 50.44 150.5 100.13 150.5 150.5 150.5 200.85 251.47 99.88 100.8 250.56" style="fill:none;stroke:#754595;stroke-linecap:round;stroke-linejoin:round;stroke-width:2px"/><path d="M150,150h50.34V99H48.84" transform="translate(0.5 0.5)" style="fill:none;stroke:#754595;stroke-linecap:round;stroke-linejoin:round;stroke-width:2px"/><polyline points="49.34 99.72 100.13 150.5 100.13 200.87 150.5 200.87 200.97 251.34" style="fill:none;stroke:#754595;stroke-linecap:round;stroke-linejoin:round;stroke-width:2px"/><line x1="200.84" y1="150.5" x2="200.84" y2="251.34" style="fill:none;stroke:#754595;stroke-linecap:round;stroke-linejoin:round;stroke-width:2px"/><polyline points="49.54 251.46 150.5 150.5 251.47 49.53 200.84 49.79 200.84 99.53 251.83 99.53 251.47 49.53" style="fill:none;stroke:#754595;stroke-linecap:round;stroke-linejoin:round;stroke-width:2px"/><polygon points="100.13 200.87 49.68 201.21 49.68 251.46 100.66 250.41 100.13 200.87" style="fill:none;stroke:#754595;stroke-linecap:round;stroke-linejoin:round;stroke-width:2px"/><polygon points="100.13 150.5 49.34 99.72 150.5 99.72 100.13 150.5" style="fill:#754595;stroke:#754595;stroke-miterlimit:10"/><polygon points="200.84 150.5 200.84 251.34 150.43 200.92 200.84 150.5" style="fill:#754595;stroke:#754595;stroke-miterlimit:10"/><polygon points="200.84 99.53 200.84 49.79 251.47 49.79 200.84 99.53" style="fill:#754595;stroke:#754595;stroke-miterlimit:10"/><polygon points="251.47 99.88 200.85 150.5 200.85 99.88 251.47 99.88" style="fill:#754595;stroke:#754595;stroke-miterlimit:10"/><polygon points="200.85 99.88 150.5 99.88 150.5 149.61 200.85 99.88" style="fill:#754595;stroke:#754595;stroke-miterlimit:10"/><polygon points="150.5 149.61 150.5 200.92 100.13 200.92 150.5 149.61" style="fill:#754595;stroke:#754595;stroke-miterlimit:10"/><polygon points="100.13 200.92 100.13 150.5 49.55 201.08 100.13 200.92" style="fill:#754595;stroke:#754595;stroke-miterlimit:10"/><polyline points="100.8 250.56 100.8 200.92 49.97 251.75 100.8 250.39" style="fill:#754595;stroke:#754595;stroke-miterlimit:10"/><text transform="translate(83.55 70.42)" style="font-size:42px;fill:#754595;font-family:Roboto-Bold, Roboto;font-weight:700">POP</text><text transform="translate(215.05 196.94)" style="font-size:42px;fill:#754595;font-family:Roboto-Bold, Roboto;font-weight:700"><tspan style="letter-spacing:-0.013671875em">T</tspan><tspan x="25.41" y="0">O</tspan></text></svg>